<svg xmlns="http://www.w3.org/2000/svg" xmlns:xlink="http://www.w3.org/1999/xlink" width="110" height="110" viewBox="0 0 110 110">
  <defs>
    <style>
      .cls-1 {
        fill: none;
      }

      .cls-2 {
        clip-path: url(#clip-path);
      }

      .cls-3 {
        fill: #1088cb;
      }

      .cls-14, .cls-3 {
        fill-rule: evenodd;
      }

      .cls-4 {
        opacity: 0.8;
        fill: url(#linear-gradient);
      }

      .cls-5 {
        fill: url(#linear-gradient-2);
      }

      .cls-6 {
        fill: url(#linear-gradient-3);
      }

      .cls-7 {
        fill: url(#linear-gradient-4);
      }

      .cls-10, .cls-8 {
        isolation: isolate;
      }

      .cls-8 {
        opacity: 0.63;
        fill: url(#linear-gradient-5);
      }

      .cls-9 {
        fill: #42b0ff;
      }

      .cls-10, .cls-14, .cls-16 {
        fill: #fff;
      }

      .cls-10 {
        opacity: 0.4;
      }

      .cls-11, .cls-12 {
        opacity: 0.6;
      }

      .cls-11 {
        fill: url(#linear-gradient-6);
      }

      .cls-12 {
        fill: url(#linear-gradient-7);
      }

      .cls-13 {
        clip-path: url(#clip-path-2);
      }

      .cls-15 {
        fill: #3a6d93;
      }
    </style>
    <clipPath id="clip-path">
      <rect class="cls-1" x="5" y="5" width="100" height="100" rx="25"/>
    </clipPath>
    <linearGradient id="linear-gradient" x1="5.05" y1="55.04" x2="105.05" y2="55.04" gradientUnits="userSpaceOnUse">
      <stop offset="0" stop-color="#71c1ff"/>
      <stop offset="0.32" stop-color="#74b3ff"/>
      <stop offset="0.85" stop-color="#7bcaff"/>
      <stop offset="0.99" stop-color="#3daeff"/>
    </linearGradient>
    <linearGradient id="linear-gradient-2" x1="126.78" y1="-182.95" x2="21.02" y2="-246.96" gradientTransform="matrix(1, 0, 0, -1, 0, -171.41)" gradientUnits="userSpaceOnUse">
      <stop offset="0.23" stop-color="#fff" stop-opacity="0.6"/>
      <stop offset="0.32" stop-color="#fff" stop-opacity="0.56"/>
      <stop offset="0.48" stop-color="#fff" stop-opacity="0.46"/>
      <stop offset="0.68" stop-color="#fff" stop-opacity="0.3"/>
      <stop offset="0.92" stop-color="#fff" stop-opacity="0.08"/>
      <stop offset="0.99" stop-color="#fff" stop-opacity="0"/>
    </linearGradient>
    <linearGradient id="linear-gradient-3" x1="22.29" y1="-6.02" x2="81.25" y2="74.47" gradientUnits="userSpaceOnUse">
      <stop offset="0" stop-color="#7ddeff"/>
      <stop offset="0.99" stop-color="#fff" stop-opacity="0"/>
    </linearGradient>
    <linearGradient id="linear-gradient-4" x1="4.19" y1="-179.35" x2="18.54" y2="-251.41" gradientTransform="matrix(1, 0, 0, -1, 0, -171.41)" gradientUnits="userSpaceOnUse">
      <stop offset="0" stop-color="#fff"/>
      <stop offset="0.08" stop-color="#fff" stop-opacity="0.96"/>
      <stop offset="0.22" stop-color="#fff" stop-opacity="0.86"/>
      <stop offset="0.4" stop-color="#fff" stop-opacity="0.7"/>
      <stop offset="0.62" stop-color="#fff" stop-opacity="0.47"/>
      <stop offset="0.85" stop-color="#fff" stop-opacity="0.19"/>
      <stop offset="0.99" stop-color="#fff" stop-opacity="0"/>
    </linearGradient>
    <linearGradient id="linear-gradient-5" x1="43.49" y1="-281.9" x2="88.06" y2="-245.17" xlink:href="#linear-gradient-4"/>
    <linearGradient id="linear-gradient-6" x1="53.42" y1="52.92" x2="5.6" y2="54.2" xlink:href="#linear-gradient"/>
    <linearGradient id="linear-gradient-7" x1="-662.47" y1="-316.87" x2="-717.72" y2="-315.39" gradientTransform="translate(-613.96 -259.55) rotate(180)" xlink:href="#linear-gradient"/>
    <clipPath id="clip-path-2">
      <rect class="cls-1" x="10.83" y="14.5" width="86.83" height="82.45"/>
    </clipPath>
  </defs>
  <g id="Ñëîé_12" data-name="Ñëîé 12">
    <g>
      <g class="cls-2">
        <g>
          <path class="cls-3" d="M28.29,104.46H81.53a20.46,20.46,0,0,0,11.75-3.84,2.61,2.61,0,0,0,.12-4.23l-.7-.55A11.74,11.74,0,0,0,90,94.15a11.24,11.24,0,0,1-1.76-.64c-8-4.76-17.24-1-25.55-.39-9.79.65-19.69.21-29.49.26A5,5,0,0,1,31.07,93c-5.9-2.48-9.43-1-13.67,4.13l0,.06a2.72,2.72,0,0,0,1.12,4.14C21.27,102.72,25.44,104.46,28.29,104.46Z"/>
          <rect id="Rectangle_4819-2-2" data-name="Rectangle 4819-2-2" class="cls-4" x="5.05" y="5.04" width="100" height="100" rx="25"/>
          <path class="cls-5" d="M20.2,32.81c3.85-13,28.08-9.88,31.41-11.55s22.56-3.59,27.56,1.41,1.66,6.66,1.66,10,10,6.66,8.34,13.33L80.83,79.33c-1.66,6.67-5,13.34-6.66,6.67s-3.34-15-5-10-6.26,10.67-14.6,14S41.31,94.74,38,94.74,26,97.86,18.43,79.33C11.91,63.33,20.2,32.81,20.2,32.81Z"/>
          <path class="cls-6" d="M97.6,14.91C101,20.09,96,25,97.6,29.3a76.88,76.88,0,0,1,3.26,17.26c0,2.88,5.07,10.8-3.92,11.08s-9.14,20.58-15.68,22S77.67,58.94,70.48,67.14s-.65,21.15-17,19.71-5.07,3.89-13.07,4.32-8-9.35-13.07-14.68S7.76,62.39,7.76,50.88c0-23-.65-34,11.44-40.29,8.16-4.32,34.3-2.88,44.1-2.88S91.06,4.84,97.6,14.91Z"/>
          <path class="cls-7" d="M20.83,89.33c-1.33-1-13-.66-5.66,4.67s14,10.67,15.66,9.67S25.83,92.67,20.83,89.33Z"/>
          <path class="cls-8" d="M67.5,94.33s-1.67,5-10,5-9.33,2.17-12.17,4.5,7.17.5,12.17-1.16S67.5,96,67.5,94.33Z"/>
          <g id="Rectangle_4819-2-3" data-name="Rectangle 4819-2-3">
            <path class="cls-9" d="M80,5.33A24.68,24.68,0,0,1,104.67,30h0V80a24.5,24.5,0,0,1-24.5,24.5H30A24.5,24.5,0,0,1,5.5,80V30A24.67,24.67,0,0,1,30,5.33H80M80,5H30A25,25,0,0,0,5,30V80a25,25,0,0,0,25,25H80a25,25,0,0,0,25-25V30A25,25,0,0,0,80,5Z"/>
          </g>
          <path class="cls-10" d="M67.67,6.83h2c4.83-.5,29.16-1.83,29.16,10,0,1-10.66-3.83-24.5-2.16s-28.83,6.5-40.5,5.5-16.66,8.33-23.33,5c-3.83-1.84,6.67-18.34,20-18.34S61.83,6.5,67.67,6.83Z"/>
          <path class="cls-11" d="M16.3,16a2.37,2.37,0,0,1,1.45,2.28c-.06,4.26-3.41,17.24-1.92,27.92,1.82,13,1,18.39,1,25.19S21,92.82,16.42,92.2,4.55,85.8,7.83,72.11c1.11-4.63,1.11-16.92-.44-22.71C4.93,40.24,7,12.34,16.3,16Z"/>
          <path class="cls-12" d="M93.48,93.9A2.36,2.36,0,0,1,92,91.63c.06-4.27-1.15-1.62-2.64-12.3-1.82-13,7.11-29.64,7.11-36.44S88.82,17,93.36,17.65s10.47.79,9,42.81C102.07,69.93,106.72,99.11,93.48,93.9Z"/>
          <g class="cls-13">
            <path id="Path_14280" data-name="Path 14280" class="cls-14" d="M95.67,23.33a43.62,43.62,0,0,1,.16,10.34L93.67,28.5c-1.67-3.67-2.84-5.67-3.84-6.33a46.63,46.63,0,0,0-9-3,83.86,83.86,0,0,0-24.16-2l5.5-.84L74.33,15c12-1,18.84-.5,20.34,1.5l.33,2c.17,1.67.5,3.33.67,4.83m0,35.34c.5,4.16,1,8.33,1.16,12.16C97.83,83,98,90.5,97,93.33l-5.83,1.34a38.3,38.3,0,0,1-11.5.66h.66l1.67-.5a16.9,16.9,0,0,0,5-3.5c4.67-4.66,7-11.83,6.5-21.66l1,1.66c.17-1.5.17-3,.33-4.66a25,25,0,0,0-.66-7l1-6.17Zm-70-15.17v-.67c.5.17.83,1.17,1.16,3s.17,1.67.34,2.5-1.17-1.5-1.34-3.16a5.89,5.89,0,0,1-.16-1.67M11,58.33l.33-1.83a3.33,3.33,0,0,1,.34,2.83l-.5,1.34A3.82,3.82,0,0,1,11,58.33M24.33,15.67H33a38.08,38.08,0,0,0-8.5,3.66l-5.33,2.84c-1.34,1-3.17,6.5-5,16.5-1,5-1.67,10-2.34,14.83a79.89,79.89,0,0,1,0-25.17,85.26,85.26,0,0,1,2.5-11.16c.89-.78,4.23-1.28,10-1.5m18.84,3c3.83-.5,6.16-.34,6.66.66H45.67l-8.17.34,1.83-.34,3.84-.66M44.83,80.5H42.5a4.13,4.13,0,0,1,3-1.17h2.17c-.34.84-1.34,1.34-2.84,1.34m16.34,12-7.34,1.5,8-4.5,1.34,3,8-2.34-8.5,5.17Zm-48-11.84a17.19,17.19,0,0,0,4.33,6A28.05,28.05,0,0,0,29,92.67,71.9,71.9,0,0,0,51,95a125.68,125.68,0,0,1-13.67,1.83C27,97.5,19.17,96.5,13.67,94a67.55,67.55,0,0,1-1.17-6.67c-.33-2.33-.67-7.83-.17-9.16v.66a9,9,0,0,0,.84,2"/>
          </g>
        </g>
      </g>
      <rect class="cls-1" width="110" height="110"/>
    </g>
    <path class="cls-15" d="M90.37,68.94a23.09,23.09,0,0,0-6.85,2c-.93-1.8-2.91-3.1-4.53-4.21-3-2.09-5.39-3.4-6.59-7.1C71,55.33,71,49.16,66.67,46.64a55.33,55.33,0,0,0,4.55-3.32,29.37,29.37,0,0,0,9.85-14.79c1.51-5.2,1.09-12.6,4.94-16.78-2.36,2.57-4.24,4.12-5.27,7.84-1.12,4.09-1.45,8.22-3.07,12.2,0-.13-.61-.76-.71-.86-2-2.1-5-3.28-7.42-4.76-1.34-.82-3.77-3.6-5.28-3.54.12,1.77,3.17,4.6,4.71,5.33a4,4,0,0,1,1.06.69,7.27,7.27,0,0,0,1.07.74,4.62,4.62,0,0,0,.67.41c.31.15.55.4.86.56a5.51,5.51,0,0,1,2,1.43,10.11,10.11,0,0,0,2.25,1.61,29,29,0,0,1-5.79,7.14c-3.54,3.38-7.79,5.86-11.73,8.76,1.22-3.74-2.42-6.22-5.54-8.13-1-.62-2-1.23-3-1.88s-1.77-1.17-2.62-1.81S46.74,36.19,46,35.6c-1.83-1.37-3.1-.66-4.25-3-.72-1.49-1.11-3.25-3.07-3.43,2.94,2,.39,6.38-1.92,7.82-4.3,2.7-9.56,1-14.08,3.11,3.55-.26,7,.15,10.53.08s4.54-1.81,7.24-3.43c4.67-2.82,9.1,4.5,12.47,6.54a30.75,30.75,0,0,1,4.29,3.07c1.07.95,1,2.59,1,3.87A41.09,41.09,0,0,0,55,52.94c-4.46,4.36-4.41,10.28-6.44,15.83a17.53,17.53,0,0,1-3.72,6,23.89,23.89,0,0,0-2.79-.5,36.82,36.82,0,0,1-10.7-4.09s1.69-3,1.78-3.33c.37-1.47-.51-3.29-1.13-4.57a.87.87,0,0,0-.07.52c0,2.56-.25,6.81-3.48,7-3.54.25-7.55-.57-11.09-.85-1.4-.12-2.8-.23-4.19-.28a2.43,2.43,0,0,1,1,.33c.68.25,1.42.33,2.11.55,1.75.57,3.59,1.7,5.46,1.56a26.38,26.38,0,0,1,6.11.73,25,25,0,0,1,3.53.89c2.53.87,5,2,7.53,2.93a18.26,18.26,0,0,0,3.62,1,1.36,1.36,0,0,0,.29,0c-1.06,0-2.29.92-3.14,1.45-4.93,3.06-11,4.12-15.25,8.31,2.05-2,7.28-2.39,9.91-2.11,4.49.46,5.88,2,8.75,5,.41.43,1.86,2.72,1.86,2.72a9,9,0,0,0-1.76-4.41,19.51,19.51,0,0,0-4.32-4.09,3.11,3.11,0,0,0-.65-.39,2.48,2.48,0,0,1-.6-.26c-.64-.49,4.1-3.11,4.56-3.39a18.25,18.25,0,0,0,6.41-6.06c0-.08.28-.54.39-.53,1.46.1,2.89.11,4.08,1.22a25.17,25.17,0,0,1,2.39,3.06,55.27,55.27,0,0,0,5.66,6.38c1.79,1.64,4,3.12,4.26,5.76-.13-1.35,2.36-3.54,3.21-4.44a11.32,11.32,0,0,1,1.08-1C75,79.47,80.92,73.42,87.83,71.62c5.36-1.39,9.33-1,14.75-1.84C96.87,69.59,95,68.31,90.37,68.94Zm-14,6.84a57.53,57.53,0,0,0-5.81,6.08c-.91,1.07-2.76,3.34-4.31,3.1a32.14,32.14,0,0,1-5.2-4.45c-2.5-2.62-4.39-6-7.16-8.27a4.83,4.83,0,0,0-4.15-.84c2.41-5.17,2.1-11.43,5.76-15.93,2.68-3.28,6.35-5.66,10-8,3.93,4.28,3.4,10,5.73,15.2,1,2.27,2.94,3.5,4.91,4.9,1.1.8,2.28,1.46,3.35,2.32.83.65,1.48,1.43,2.27,2.06A33.28,33.28,0,0,0,76.41,75.78Z"/>
    <g>
      <path class="cls-16" d="M38.8,75.69l.09,0a17.46,17.46,0,0,0,3,.84,1.94,1.94,0,0,1,.34,0l-.29,0A18.94,18.94,0,0,1,38.8,75.69Z"/>
      <path class="cls-16" d="M30.8,70a29.86,29.86,0,0,0,6.79,3,28.45,28.45,0,0,1-6.23-2.82s1.69-3,1.78-3.33c.37-1.47-.51-3.29-1.13-4.57a.87.87,0,0,0-.07.52c0,.1,0,.21,0,.31a5.83,5.83,0,0,1,.66,3.55C32.5,67,30.79,70,30.8,70Z"/>
      <path class="cls-16" d="M56.1,55.67c2.61-3.21,6.17-5.54,9.69-7.88-.1-.11-.19-.24-.3-.35-3.6,2.39-7.27,4.76-9.95,8.05-3.66,4.5-3.35,10.76-5.76,15.92.22,0,.81-.07,1-.09C52.94,68,52.49,60.1,56.1,55.67Z"/>
      <path class="cls-16" d="M81.63,28.69c1.28-4.4,1.33-9.28,2.83-13.88a12.43,12.43,0,0,1,1.54-3c-1.07,1-1.27,2.1-1.77,2.67-2,4.22-1.94,9.87-3.16,14.07a29.51,29.51,0,0,1-9.85,14.8c-1.42,1.17-3,2.25-4.55,3.31,4.34,2.53,4.3,8.7,5.73,13,1.2,3.7,3.57,5,6.59,7.1,1.62,1.11,3.6,2.41,4.53,4.22l.35-.16A14.54,14.54,0,0,0,79.55,67c-3-2.09-5.4-3.4-6.6-7.1-1.43-4.35-1.39-10.52-5.72-13a53.5,53.5,0,0,0,4.54-3.32A29.46,29.46,0,0,0,81.63,28.69Z"/>
      <path class="cls-16" d="M33.16,40.16c3.51-.07,4.54-1.81,7.24-3.43a4.14,4.14,0,0,1,3.39-.47,4.26,4.26,0,0,0-3.95.28c-2.7,1.62-3.72,3.37-7.23,3.43-3.15.07-6.24-.25-9.39-.13l-.59.24C26.18,39.82,29.64,40.23,33.16,40.16Z"/>
      <path class="cls-16" d="M69.56,26.11C72,27.59,75,28.78,77,30.87c.1.1.77.74.72.87l.14-.38c-.13-.14-.26-.26-.3-.3-2-2.1-5-3.28-7.41-4.76-1.25-.76-3.45-3.22-5-3.51C66.62,23.45,68.46,25.44,69.56,26.11Z"/>
      <path class="cls-16" d="M66.12,84.65C65,83.51,62.78,82,61.21,80.39c-2.5-2.62-4.39-6-7.16-8.27a4,4,0,0,0-1.59-.81,4,4,0,0,1,1,.63c2.78,2.31,4.67,5.65,7.16,8.26A36.93,36.93,0,0,0,66.3,85C66.4,85,66.19,84.71,66.12,84.65Z"/>
      <path class="cls-16" d="M48.4,72.75c-.11,0-.34.46-.39.53a17.91,17.91,0,0,1-6.41,6.06c-.46.28-5.19,2.91-4.56,3.4a2.94,2.94,0,0,0,.6.26,3.06,3.06,0,0,1,.65.38c1.61,1.19,2.94,1.82,4.17,3.4a12.25,12.25,0,0,1,2.09,3.68c.07.22.25,1.11.38,1.6a4.66,4.66,0,0,0-.35-1.9,9.29,9.29,0,0,0-1.43-2.76,20,20,0,0,0-4.3-3.84,3.56,3.56,0,0,0-.65-.38,2.48,2.48,0,0,1-.6-.26c-.64-.49,4.1-3.11,4.56-3.39a18.25,18.25,0,0,0,6.41-6.06c0-.08.28-.54.39-.53a12.59,12.59,0,0,1,2.33.28A9.46,9.46,0,0,0,48.4,72.75Z"/>
      <path class="cls-16" d="M41.7,32.57c1.15,2.37,2.43,1.66,4.25,3,.79.6,1.5,1.29,2.29,1.88s1.72,1.24,2.62,1.82,2,1.26,3,1.87c3.13,1.92,6.76,4.39,5.54,8.13l.73-.52c.58-3.35-2.79-5.63-5.72-7.42-1-.62-2-1.23-3-1.87s-1.77-1.18-2.62-1.82-1.5-1.29-2.29-1.88c-1.83-1.36-3.11-.66-4.26-3-.67-1.39-1.07-3-2.71-3.36C40.73,30,41.11,31.35,41.7,32.57Z"/>
      <path class="cls-16" d="M102.57,69.76c-5.42.89-9.93.29-15.3,1.68-6.9,1.79-12.86,7.84-18.18,12.3a11.42,11.42,0,0,0-1.08,1,18.54,18.54,0,0,0-3,3.42,5.15,5.15,0,0,1,.3,1.2c-.13-1.35,2.36-3.54,3.21-4.44a11.32,11.32,0,0,1,1.08-1C75,79.47,80.92,73.42,87.83,71.62c5.36-1.39,8.38.36,14.54-1.67C102.39,69.81,102.57,69.81,102.57,69.76Z"/>
      <path class="cls-16" d="M33.77,84.18a19.92,19.92,0,0,0-7.59.79,15.56,15.56,0,0,0-1.77,1.51c2.05-2,7.28-2.39,9.91-2.11a9.16,9.16,0,0,1,1.82.36A9.18,9.18,0,0,0,33.77,84.18Z"/>
      <path class="cls-16" d="M13.29,68.74h0Z"/>
      <path class="cls-16" d="M15.7,69.43c-.53-.18-1.1-.27-1.65-.41l.1,0c.63.23,1.3.32,2,.51Z"/>
      <path class="cls-16" d="M31.11,72.72l-.31-.11a23.69,23.69,0,0,0-3.53-.89,25.7,25.7,0,0,0-6.1-.73,5.61,5.61,0,0,1-2.06-.28,6.27,6.27,0,0,0,2.61.46,26.38,26.38,0,0,1,6.11.73A24.58,24.58,0,0,1,31.11,72.72Z"/>
      <path class="cls-16" d="M66.3,85c.1,0-.77-.54-.83-.76a24.9,24.9,0,0,1-4.26-3.82"/>
      <path class="cls-16" d="M66.3,85c.1,0-.13-.17-.83-.76a24.9,24.9,0,0,1-4.26-3.82"/>
      <path class="cls-16" d="M87.83,71.62c5.36-1.39,8.38.36,14.54-1.67.14-.13.2-.14.2-.19"/>
    </g>
  </g>
</svg>
